<svg width="109" height="125" viewBox="0 0 109 125" fill="none" xmlns="http://www.w3.org/2000/svg">
<path d="M47.7109 118.591C49.4859 118.591 50.9243 120.026 50.9243 121.796C50.9243 123.566 49.4859 125 47.7109 125H7.47747C5.41683 125 3.55001 124.166 2.19325 122.813C0.836497 121.46 0 119.598 0 117.544V7.45646C0 5.40161 0.836497 3.54004 2.19325 2.18709C3.55001 0.834147 5.41683 0 7.47747 0H99.3085C101.369 0 103.236 0.84432 104.593 2.18709C105.949 3.54004 106.786 5.40161 106.786 7.45646V58.4615C106.786 60.2315 105.348 61.6659 103.573 61.6659C101.798 61.6659 100.359 60.2315 100.359 58.4615V7.45646C100.359 7.17163 100.237 6.90715 100.043 6.72404C99.8492 6.53076 99.5839 6.40869 99.3085 6.40869H7.47747C7.19183 6.40869 6.9266 6.53076 6.73278 6.71387C6.54916 6.91732 6.42674 7.17163 6.42674 7.45646V117.533C6.42674 117.818 6.54916 118.083 6.74298 118.266C6.9368 118.459 7.20203 118.581 7.48767 118.581H47.7109V118.591ZM100.686 75.6226C100.165 75.1241 99.5635 74.8901 98.8699 74.9003C98.1762 74.9105 97.5845 75.1852 97.0949 75.6938L93.1062 79.834L104.297 90.6067L108.326 86.4258C108.806 85.9375 109.01 85.3068 109 84.6151C108.989 83.9335 108.745 83.313 108.255 82.8451L100.686 75.6226ZM79.7834 115.977C78.3043 116.445 76.8353 116.933 75.3663 117.411C73.8872 117.9 72.4182 118.398 70.9492 118.886C67.4706 120.026 65.5222 120.656 65.1142 120.768C64.7163 120.89 64.9509 119.263 65.8282 115.875L68.5928 105.245L89.5562 83.4961L100.737 94.2281L79.7834 115.977ZM32.2153 41.7887C30.4403 41.7887 29.002 40.3544 29.002 38.5844C29.002 36.8144 30.4403 35.38 32.2153 35.38H74.591C76.3661 35.38 77.8044 36.8144 77.8044 38.5844C77.8044 40.3544 76.3661 41.7887 74.591 41.7887H32.2153ZM32.2153 87.2498C30.4403 87.2498 28.9918 85.7951 28.9918 84.0047C28.9918 82.2144 30.4301 80.7597 32.2153 80.7597H53.0972C54.8722 80.7597 56.3207 82.2144 56.3207 84.0047C56.3207 85.7951 54.8824 87.2498 53.0972 87.2498H32.2153ZM32.2153 64.504C30.4403 64.504 29.002 63.0697 29.002 61.2996C29.002 59.5296 30.4403 58.0953 32.2153 58.0953H74.591C76.3661 58.0953 77.8044 59.5296 77.8044 61.2996C77.8044 63.0697 76.3661 64.504 74.591 64.504H32.2153Z" fill="#F8F8F8"/>
</svg>
